<?xml version="1.0" standalone="no"?>
<svg viewBox="0 0 200 200" xmlns="http://www.w3.org/2000/svg">
  <path fill="#F1F3FB" d="M46.3,-81C60.1,-72.3,71.5,-60,78.5,-46C85.5,-31.9,88.3,-15.9,88.2,0C88.2,15.9,85.3,31.7,77.6,44.7C69.9,57.7,57.4,67.8,43.7,74.7C30,81.6,15,85.4,-0.5,86.2C-15.9,87,-31.8,84.9,-46,78.2C-60.1,71.5,-72.4,60.2,-79.3,46.4C-86.1,32.6,-87.5,16.3,-86.1,0.8C-84.7,-14.7,-80.5,-29.4,-73.4,-42.7C-66.2,-56,-56.2,-68,-43.5,-77.3C-30.8,-86.6,-15.4,-93.3,0.4,-94.1C16.3,-94.8,32.5,-89.7,46.3,-81Z" transform="translate(100 100)" />
</svg>
