<?xml version="1.0" standalone="no"?>
<svg viewBox="0 0 200 200" xmlns="http://www.w3.org/2000/svg">
  <path fill="#F2F4F8" d="M45,-79.5C58,-70.4,68,-57.7,75.1,-43.9C82.2,-30,86.4,-15,86,-0.2C85.7,14.6,80.8,29.2,73.5,42.8C66.3,56.4,56.7,69,44,77.5C31.4,86.1,15.7,90.6,0.3,90.1C-15,89.5,-30.1,83.8,-43.8,75.9C-57.4,67.9,-69.7,57.6,-77.3,44.6C-85,31.6,-88,15.8,-88.1,-0.1C-88.3,-15.9,-85.5,-31.8,-77.7,-44.6C-69.9,-57.5,-57.2,-67.2,-43.4,-75.8C-29.6,-84.5,-14.8,-92.1,0.6,-93.1C16,-94.2,32,-88.6,45,-79.5Z" transform="translate(100 100)" />
</svg>
