<?xml version="1.0" standalone="no"?>
<svg viewBox="0 0 200 200" xmlns="http://www.w3.org/2000/svg">
  <path fill="#FEEEF3" d="M42.6,-74.3C55.3,-66.5,65.8,-55.3,74.6,-42.3C83.3,-29.4,90.3,-14.7,91.7,0.8C93,16.2,88.6,32.4,80.3,46.2C72,59.9,59.8,71.1,45.7,79.5C31.7,87.8,15.9,93.3,0.2,92.9C-15.4,92.5,-30.8,86.2,-43.8,77.3C-56.8,68.3,-67.3,56.6,-75.4,43.3C-83.5,30,-89.2,15,-90.1,-0.5C-91,-16,-87.2,-32.1,-79.6,-46.3C-72,-60.5,-60.6,-72.8,-46.7,-79.9C-32.8,-87.1,-16.4,-89,-0.7,-87.8C14.9,-86.5,29.9,-82.1,42.6,-74.3Z" transform="translate(100 100)" />
</svg>
