<?xml version="1.0" standalone="no"?>
<svg viewBox="0 0 200 200" xmlns="http://www.w3.org/2000/svg">
  <path fill="#F2F4F8" d="M45.8,-78.7C59.4,-71.6,70.4,-59.3,77.5,-45.3C84.6,-31.3,87.8,-15.7,87.2,-0.3C86.7,15,82.4,30.1,75.5,44.3C68.5,58.5,58.8,71.8,45.8,80.5C32.8,89.2,16.4,93.3,0.7,92C-14.9,90.7,-29.8,84.1,-43.4,75.7C-56.9,67.3,-69,57,-76.4,44.1C-83.8,31.2,-86.6,15.6,-85.7,0.5C-84.9,-14.6,-80.4,-29.2,-73.5,-43.1C-66.6,-56.9,-57.3,-70,-44.6,-77.6C-32,-85.3,-16,-87.4,0.1,-87.6C16.1,-87.7,32.3,-85.8,45.8,-78.7Z" transform="translate(100 100)" />
</svg>
