<?xml version="1.0" standalone="no"?>
<svg viewBox="0 0 200 200" xmlns="http://www.w3.org/2000/svg">
  <path fill="#C1CDF0" d="M40.5,-67.4C54,-62.4,67.4,-54.5,74.5,-42.8C81.6,-31.1,82.3,-15.6,80.8,-0.9C79.2,13.8,75.4,27.5,69,40.6C62.7,53.6,54,66,42.1,73.3C30.1,80.7,15.1,83.1,1.2,81C-12.6,78.9,-25.3,72.2,-37.3,65C-49.4,57.7,-60.9,49.8,-67.7,38.8C-74.4,27.9,-76.3,13.9,-78,-0.9C-79.6,-15.8,-80.9,-31.7,-75.9,-45.6C-70.9,-59.5,-59.6,-71.5,-45.9,-76.3C-32.1,-81.2,-16.1,-78.8,-1.3,-76.6C13.5,-74.4,27,-72.4,40.5,-67.4Z" transform="translate(100 100)" />
</svg>
