<svg width="35" height="25" viewBox="0 0 35 25" fill="none" xmlns="http://www.w3.org/2000/svg">
<rect width="35" height="25" rx="2" fill="#4E4E4E" fill-opacity="0.87"/>
<path d="M4.84 17V7.2H8.34C8.872 7.2 9.35267 7.333 9.782 7.599C10.216 7.865 10.559 8.222 10.811 8.67C11.063 9.118 11.189 9.61033 11.189 10.147C11.189 10.6977 11.0583 11.197 10.797 11.645C10.5403 12.0883 10.195 12.443 9.761 12.709C9.327 12.9703 8.85333 13.101 8.34 13.101H6.548V17H4.84ZM6.548 11.393H8.158C8.40067 11.393 8.62233 11.3323 8.823 11.211C9.02367 11.0897 9.18233 10.9263 9.299 10.721C9.42033 10.5157 9.481 10.287 9.481 10.035C9.481 9.77833 9.42033 9.54733 9.299 9.342C9.18233 9.13667 9.02367 8.97333 8.823 8.852C8.62233 8.73067 8.40067 8.67 8.158 8.67H6.548V11.393ZM12.4689 17V7.2H16.2279C16.7599 7.2 17.2406 7.333 17.6699 7.599C18.0992 7.865 18.4399 8.222 18.6919 8.67C18.9439 9.11333 19.0699 9.60567 19.0699 10.147C19.0699 10.5903 18.9882 10.9987 18.8249 11.372C18.6662 11.7407 18.4422 12.0603 18.1529 12.331C17.8682 12.6017 17.5392 12.807 17.1659 12.947L19.5109 17H17.5439L15.2759 13.101H14.1769V17H12.4689ZM14.1769 11.393H16.0319C16.2746 11.393 16.4962 11.3323 16.6969 11.211C16.8976 11.0897 17.0586 10.9263 17.1799 10.721C17.3012 10.5157 17.3619 10.287 17.3619 10.035C17.3619 9.77833 17.3012 9.54733 17.1799 9.342C17.0586 9.13667 16.8976 8.97333 16.6969 8.852C16.4962 8.73067 16.2746 8.67 16.0319 8.67H14.1769V11.393ZM25.0716 17.182C24.409 17.182 23.786 17.0513 23.2026 16.79C22.6193 16.524 22.106 16.1577 21.6626 15.691C21.2193 15.2243 20.8716 14.6853 20.6196 14.074C20.3676 13.458 20.2416 12.8 20.2416 12.1C20.2416 11.4 20.3676 10.7443 20.6196 10.133C20.8716 9.517 21.2193 8.97567 21.6626 8.509C22.106 8.04233 22.6193 7.67833 23.2026 7.417C23.786 7.151 24.409 7.018 25.0716 7.018C25.739 7.018 26.3643 7.151 26.9476 7.417C27.531 7.67833 28.0443 8.04233 28.4876 8.509C28.931 8.97567 29.2763 9.517 29.5236 10.133C29.7756 10.7443 29.9016 11.4 29.9016 12.1C29.9016 12.8 29.7756 13.458 29.5236 14.074C29.2763 14.6853 28.931 15.2243 28.4876 15.691C28.0443 16.1577 27.531 16.524 26.9476 16.79C26.3643 17.0513 25.739 17.182 25.0716 17.182ZM25.0716 15.474C25.501 15.474 25.9046 15.3853 26.2826 15.208C26.6606 15.0307 26.992 14.788 27.2766 14.48C27.566 14.1673 27.79 13.808 27.9486 13.402C28.112 12.996 28.1936 12.562 28.1936 12.1C28.1936 11.638 28.112 11.204 27.9486 10.798C27.7853 10.3873 27.559 10.028 27.2696 9.72C26.985 9.412 26.6536 9.16933 26.2756 8.992C25.9023 8.81467 25.501 8.726 25.0716 8.726C24.6423 8.726 24.2386 8.81467 23.8606 8.992C23.4826 9.16933 23.149 9.41433 22.8596 9.727C22.575 10.035 22.351 10.392 22.1876 10.798C22.029 11.204 21.9496 11.638 21.9496 12.1C21.9496 12.5667 22.0313 13.003 22.1946 13.409C22.358 13.815 22.582 14.1743 22.8666 14.487C23.156 14.795 23.4873 15.0377 23.8606 15.215C24.2386 15.3877 24.6423 15.474 25.0716 15.474Z" fill="white"/>
</svg>
